<?xml version="1.0" encoding="UTF-8" standalone="no"?><!DOCTYPE svg PUBLIC "-//W3C//DTD SVG 1.1//EN" "http://www.w3.org/Graphics/SVG/1.1/DTD/svg11.dtd"><!-- Generated by graphviz version 2.40.1 (20161225.0304)
 --><!-- Title: G Pages: 1 --><svg xmlns="http://www.w3.org/2000/svg" xmlns:xlink="http://www.w3.org/1999/xlink" width="440pt" height="730pt" viewBox="0.00 0.00 440.15 729.60">
<g id="graph0" class="graph" transform="scale(1 1) rotate(0) translate(4 725.6)">
<title>G</title>
<polygon fill="#ffffff" stroke="transparent" points="-4,4 -4,-725.6 436.1517,-725.6 436.1517,4 -4,4"/>
<!-- Start -->
<g id="node1" class="node">
<title>Start</title>
<path fill="none" stroke="#000000" d="M93.1781,-721.6C93.1781,-721.6 63.0039,-721.6 63.0039,-721.6 57.0039,-721.6 51.0039,-715.6 51.0039,-709.6 51.0039,-709.6 51.0039,-697.6 51.0039,-697.6 51.0039,-691.6 57.0039,-685.6 63.0039,-685.6 63.0039,-685.6 93.1781,-685.6 93.1781,-685.6 99.1781,-685.6 105.1781,-691.6 105.1781,-697.6 105.1781,-697.6 105.1781,-709.6 105.1781,-709.6 105.1781,-715.6 99.1781,-721.6 93.1781,-721.6"/>
<text text-anchor="middle" x="78.091" y="-699.4" font-family="Times,serif" font-size="14.00" fill="#000000">Início</text>
</g>
<!-- DefineAnaliseSinais -->
<g id="node2" class="node">
<title>DefineAnaliseSinais</title>
<path fill="none" stroke="#000000" d="M142.7953,-648.6C142.7953,-648.6 13.3867,-648.6 13.3867,-648.6 7.3867,-648.6 1.3867,-642.6 1.3867,-636.6 1.3867,-636.6 1.3867,-624.6 1.3867,-624.6 1.3867,-618.6 7.3867,-612.6 13.3867,-612.6 13.3867,-612.6 142.7953,-612.6 142.7953,-612.6 148.7953,-612.6 154.7953,-618.6 154.7953,-624.6 154.7953,-624.6 154.7953,-636.6 154.7953,-636.6 154.7953,-642.6 148.7953,-648.6 142.7953,-648.6"/>
<text text-anchor="middle" x="78.091" y="-626.4" font-family="Times,serif" font-size="14.00" fill="#000000">Análise teórica para x1</text>
</g>
<!-- Start&#45;&gt;DefineAnaliseSinais -->
<g id="edge1" class="edge">
<title>Start-&gt;DefineAnaliseSinais</title>
<path fill="none" stroke="#000000" d="M78.091,-685.5551C78.091,-677.4828 78.091,-667.7764 78.091,-658.7817"/>
<polygon fill="#000000" stroke="#000000" points="81.5911,-658.6903 78.091,-648.6904 74.5911,-658.6904 81.5911,-658.6903"/>
</g>
<!-- CheckInitialX0 -->
<g id="node3" class="node">
<title>CheckInitialX0</title>
<path fill="none" stroke="#000000" d="M144.2731,-575.6C144.2731,-575.6 11.9089,-575.6 11.9089,-575.6 5.9089,-575.6 -.0911,-569.6 -.0911,-563.6 -.0911,-563.6 -.0911,-551.6 -.0911,-551.6 -.0911,-545.6 5.9089,-539.6 11.9089,-539.6 11.9089,-539.6 144.2731,-539.6 144.2731,-539.6 150.2731,-539.6 156.2731,-545.6 156.2731,-551.6 156.2731,-551.6 156.2731,-563.6 156.2731,-563.6 156.2731,-569.6 150.2731,-575.6 144.2731,-575.6"/>
<text text-anchor="middle" x="78.091" y="-553.4" font-family="Times,serif" font-size="14.00" fill="#000000">Verificar se |f(x0)| &lt; err1</text>
</g>
<!-- DefineAnaliseSinais&#45;&gt;CheckInitialX0 -->
<g id="edge2" class="edge">
<title>DefineAnaliseSinais-&gt;CheckInitialX0</title>
<path fill="none" stroke="#000000" d="M78.091,-612.5551C78.091,-604.4828 78.091,-594.7764 78.091,-585.7817"/>
<polygon fill="#000000" stroke="#000000" points="81.5911,-585.6903 78.091,-575.6904 74.5911,-585.6904 81.5911,-585.6903"/>
</g>
<!-- InsertX0Data -->
<g id="node4" class="node">
<title>InsertX0Data</title>
<path fill="none" stroke="#000000" d="M84.57,-432.8C84.57,-432.8 25.612,-432.8 25.612,-432.8 19.612,-432.8 13.612,-426.8 13.612,-420.8 13.612,-420.8 13.612,-408.8 13.612,-408.8 13.612,-402.8 19.612,-396.8 25.612,-396.8 25.612,-396.8 84.57,-396.8 84.57,-396.8 90.57,-396.8 96.57,-402.8 96.57,-408.8 96.57,-408.8 96.57,-420.8 96.57,-420.8 96.57,-426.8 90.57,-432.8 84.57,-432.8"/>
<text text-anchor="middle" x="55.091" y="-410.6" font-family="Times,serif" font-size="14.00" fill="#000000">Retornar x0</text>
</g>
<!-- CheckInitialX0&#45;&gt;InsertX0Data -->
<g id="edge3" class="edge">
<title>CheckInitialX0-&gt;InsertX0Data</title>
<path fill="none" stroke="#000000" d="M75.178,-539.5143C71.2765,-515.2908 64.3113,-472.0461 59.6956,-443.3888"/>
<polygon fill="#000000" stroke="#000000" points="63.0987,-442.5061 58.053,-433.1899 56.1877,-443.6193 63.0987,-442.5061"/>
<text text-anchor="middle" x="84.3729" y="-509" font-family="Times,serif" font-size="14.00" fill="#000000">Sim</text>
</g>
<!-- CheckInitialX1 -->
<g id="node5" class="node">
<title>CheckInitialX1</title>
<path fill="none" stroke="#000000" d="M330.9612,-486.8C330.9612,-486.8 95.2208,-486.8 95.2208,-486.8 89.2208,-486.8 83.2208,-480.8 83.2208,-474.8 83.2208,-474.8 83.2208,-462.8 83.2208,-462.8 83.2208,-456.8 89.2208,-450.8 95.2208,-450.8 95.2208,-450.8 330.9612,-450.8 330.9612,-450.8 336.9612,-450.8 342.9612,-456.8 342.9612,-462.8 342.9612,-462.8 342.9612,-474.8 342.9612,-474.8 342.9612,-480.8 336.9612,-486.8 330.9612,-486.8"/>
<text text-anchor="middle" x="213.091" y="-464.6" font-family="Times,serif" font-size="14.00" fill="#000000">Verificar se |f(x1)| &lt; err1 ou |x1 - x0| &lt; err2</text>
</g>
<!-- CheckInitialX0&#45;&gt;CheckInitialX1 -->
<g id="edge4" class="edge">
<title>CheckInitialX0-&gt;CheckInitialX1</title>
<path fill="none" stroke="#000000" d="M105.736,-539.4157C126.3025,-525.8876 154.5595,-507.3007 176.9212,-492.5917"/>
<polygon fill="#000000" stroke="#000000" points="179.0517,-495.3796 185.4829,-486.96 175.2049,-489.5314 179.0517,-495.3796"/>
<text text-anchor="middle" x="172.4746" y="-509" font-family="Times,serif" font-size="14.00" fill="#000000">Não</text>
</g>
<!-- End -->
<g id="node13" class="node">
<title>End</title>
<path fill="none" stroke="#000000" d="M108.091,-36C108.091,-36 78.091,-36 78.091,-36 72.091,-36 66.091,-30 66.091,-24 66.091,-24 66.091,-12 66.091,-12 66.091,-6 72.091,0 78.091,0 78.091,0 108.091,0 108.091,0 114.091,0 120.091,-6 120.091,-12 120.091,-12 120.091,-24 120.091,-24 120.091,-30 114.091,-36 108.091,-36"/>
<text text-anchor="middle" x="93.091" y="-13.8" font-family="Times,serif" font-size="14.00" fill="#000000">End</text>
</g>
<!-- InsertX0Data&#45;&gt;End -->
<g id="edge5" class="edge">
<title>InsertX0Data-&gt;End</title>
<path fill="none" stroke="#000000" d="M55.091,-396.455C55.091,-374.968 55.091,-338.3 55.091,-306.8 55.091,-306.8 55.091,-306.8 55.091,-91 55.091,-74.3993 62.9185,-57.8302 71.4683,-44.6837"/>
<polygon fill="#000000" stroke="#000000" points="74.5578,-46.3728 77.4156,-36.1707 68.8194,-42.3639 74.5578,-46.3728"/>
</g>
<!-- InsertX1Data -->
<g id="node6" class="node">
<title>InsertX1Data</title>
<path fill="none" stroke="#000000" d="M150.57,-324.8C150.57,-324.8 91.612,-324.8 91.612,-324.8 85.612,-324.8 79.612,-318.8 79.612,-312.8 79.612,-312.8 79.612,-300.8 79.612,-300.8 79.612,-294.8 85.612,-288.8 91.612,-288.8 91.612,-288.8 150.57,-288.8 150.57,-288.8 156.57,-288.8 162.57,-294.8 162.57,-300.8 162.57,-300.8 162.57,-312.8 162.57,-312.8 162.57,-318.8 156.57,-324.8 150.57,-324.8"/>
<text text-anchor="middle" x="121.091" y="-302.6" font-family="Times,serif" font-size="14.00" fill="#000000">Retornar x1</text>
</g>
<!-- CheckInitialX1&#45;&gt;InsertX1Data -->
<g id="edge6" class="edge">
<title>CheckInitialX1-&gt;InsertX1Data</title>
<path fill="none" stroke="#000000" d="M202.4439,-450.5801C191.8694,-432.4359 175.2357,-403.7636 161.091,-378.8 152.6715,-363.9406 143.4014,-347.2742 135.9071,-333.7215"/>
<polygon fill="#000000" stroke="#000000" points="138.9322,-331.9593 131.0347,-324.8967 132.8042,-335.3427 138.9322,-331.9593"/>
<text text-anchor="middle" x="203.3729" y="-410.6" font-family="Times,serif" font-size="14.00" fill="#000000">Sim</text>
</g>
<!-- StartSecanteLoop -->
<g id="node7" class="node">
<title>StartSecanteLoop</title>
<path fill="none" stroke="#000000" d="M320.5112,-378.8C320.5112,-378.8 181.6708,-378.8 181.6708,-378.8 175.6708,-378.8 169.6708,-372.8 169.6708,-366.8 169.6708,-366.8 169.6708,-354.8 169.6708,-354.8 169.6708,-348.8 175.6708,-342.8 181.6708,-342.8 181.6708,-342.8 320.5112,-342.8 320.5112,-342.8 326.5112,-342.8 332.5112,-348.8 332.5112,-354.8 332.5112,-354.8 332.5112,-366.8 332.5112,-366.8 332.5112,-372.8 326.5112,-378.8 320.5112,-378.8"/>
<text text-anchor="middle" x="251.091" y="-356.6" font-family="Times,serif" font-size="14.00" fill="#000000">Iniciar Loop de Iterações</text>
</g>
<!-- CheckInitialX1&#45;&gt;StartSecanteLoop -->
<g id="edge7" class="edge">
<title>CheckInitialX1-&gt;StartSecanteLoop</title>
<path fill="none" stroke="#000000" d="M219.5372,-450.4793C225.5237,-433.4649 234.5199,-407.8967 241.3767,-388.4091"/>
<polygon fill="#000000" stroke="#000000" points="244.7225,-389.445 244.74,-378.8502 238.1193,-387.1216 244.7225,-389.445"/>
<text text-anchor="middle" x="252.4746" y="-410.6" font-family="Times,serif" font-size="14.00" fill="#000000">Não</text>
</g>
<!-- InsertX1Data&#45;&gt;End -->
<g id="edge8" class="edge">
<title>InsertX1Data-&gt;End</title>
<path fill="none" stroke="#000000" d="M111.9228,-288.5912C103.7568,-270.6686 93.091,-242.2857 93.091,-216.3 93.091,-216.3 93.091,-216.3 93.091,-91 93.091,-76.2996 93.091,-59.934 93.091,-46.4302"/>
<polygon fill="#000000" stroke="#000000" points="96.5911,-46.3003 93.091,-36.3003 89.5911,-46.3004 96.5911,-46.3003"/>
</g>
<!-- CalculateX2 -->
<g id="node8" class="node">
<title>CalculateX2</title>
<path fill="none" stroke="#000000" d="M349.3792,-270.8C349.3792,-270.8 152.8028,-270.8 152.8028,-270.8 146.8028,-270.8 140.8028,-264.8 140.8028,-258.8 140.8028,-258.8 140.8028,-246.8 140.8028,-246.8 140.8028,-240.8 146.8028,-234.8 152.8028,-234.8 152.8028,-234.8 349.3792,-234.8 349.3792,-234.8 355.3792,-234.8 361.3792,-240.8 361.3792,-246.8 361.3792,-246.8 361.3792,-258.8 361.3792,-258.8 361.3792,-264.8 355.3792,-270.8 349.3792,-270.8"/>
<text text-anchor="middle" x="251.091" y="-248.6" font-family="Times,serif" font-size="14.00" fill="#000000">Calcular x2 com Método da Secante</text>
</g>
<!-- StartSecanteLoop&#45;&gt;CalculateX2 -->
<g id="edge9" class="edge">
<title>StartSecanteLoop-&gt;CalculateX2</title>
<path fill="none" stroke="#000000" d="M251.091,-342.4793C251.091,-325.621 251.091,-300.3651 251.091,-280.947"/>
<polygon fill="#000000" stroke="#000000" points="254.5911,-280.8501 251.091,-270.8502 247.5911,-280.8502 254.5911,-280.8501"/>
</g>
<!-- CheckSecanteConvergence -->
<g id="node9" class="node">
<title>CheckSecanteConvergence</title>
<path fill="none" stroke="#000000" d="M368.9612,-197.8C368.9612,-197.8 133.2208,-197.8 133.2208,-197.8 127.2208,-197.8 121.2208,-191.8 121.2208,-185.8 121.2208,-185.8 121.2208,-173.8 121.2208,-173.8 121.2208,-167.8 127.2208,-161.8 133.2208,-161.8 133.2208,-161.8 368.9612,-161.8 368.9612,-161.8 374.9612,-161.8 380.9612,-167.8 380.9612,-173.8 380.9612,-173.8 380.9612,-185.8 380.9612,-185.8 380.9612,-191.8 374.9612,-197.8 368.9612,-197.8"/>
<text text-anchor="middle" x="251.091" y="-175.6" font-family="Times,serif" font-size="14.00" fill="#000000">Verificar se |f(x2)| &lt; err1 ou |x2 - x1| &lt; err2</text>
</g>
<!-- CalculateX2&#45;&gt;CheckSecanteConvergence -->
<g id="edge10" class="edge">
<title>CalculateX2-&gt;CheckSecanteConvergence</title>
<path fill="none" stroke="#000000" d="M251.091,-234.7551C251.091,-226.6828 251.091,-216.9764 251.091,-207.9817"/>
<polygon fill="#000000" stroke="#000000" points="254.5911,-207.8903 251.091,-197.8904 247.5911,-207.8904 254.5911,-207.8903"/>
</g>
<!-- ReturnX2 -->
<g id="node10" class="node">
<title>ReturnX2</title>
<path fill="none" stroke="#000000" d="M205.57,-109C205.57,-109 146.612,-109 146.612,-109 140.612,-109 134.612,-103 134.612,-97 134.612,-97 134.612,-85 134.612,-85 134.612,-79 140.612,-73 146.612,-73 146.612,-73 205.57,-73 205.57,-73 211.57,-73 217.57,-79 217.57,-85 217.57,-85 217.57,-97 217.57,-97 217.57,-103 211.57,-109 205.57,-109"/>
<text text-anchor="middle" x="176.091" y="-86.8" font-family="Times,serif" font-size="14.00" fill="#000000">Retornar x2</text>
</g>
<!-- CheckSecanteConvergence&#45;&gt;ReturnX2 -->
<g id="edge11" class="edge">
<title>CheckSecanteConvergence-&gt;ReturnX2</title>
<path fill="none" stroke="#000000" d="M235.551,-161.4006C224.7192,-148.5757 210.1131,-131.2822 198.0883,-117.0448"/>
<polygon fill="#000000" stroke="#000000" points="200.481,-114.4534 191.3545,-109.072 195.1331,-118.9702 200.481,-114.4534"/>
<text text-anchor="middle" x="232.3729" y="-131.2" font-family="Times,serif" font-size="14.00" fill="#000000">Sim</text>
</g>
<!-- UpdateX0X1 -->
<g id="node11" class="node">
<title>UpdateX0X1</title>
<path fill="none" stroke="#000000" d="M357.3886,-109C357.3886,-109 268.7934,-109 268.7934,-109 262.7934,-109 256.7934,-103 256.7934,-97 256.7934,-97 256.7934,-85 256.7934,-85 256.7934,-79 262.7934,-73 268.7934,-73 268.7934,-73 357.3886,-73 357.3886,-73 363.3886,-73 369.3886,-79 369.3886,-85 369.3886,-85 369.3886,-97 369.3886,-97 369.3886,-103 363.3886,-109 357.3886,-109"/>
<text text-anchor="middle" x="313.091" y="-86.8" font-family="Times,serif" font-size="14.00" fill="#000000">Atualizar x0 e x1</text>
</g>
<!-- CheckSecanteConvergence&#45;&gt;UpdateX0X1 -->
<g id="edge12" class="edge">
<title>CheckSecanteConvergence-&gt;UpdateX0X1</title>
<path fill="none" stroke="#000000" d="M263.9374,-161.4006C272.808,-148.6956 284.7406,-131.6051 294.6273,-117.4448"/>
<polygon fill="#000000" stroke="#000000" points="297.6181,-119.2749 300.4732,-109.072 291.8787,-115.2676 297.6181,-119.2749"/>
<text text-anchor="middle" x="301.4746" y="-131.2" font-family="Times,serif" font-size="14.00" fill="#000000">Não</text>
</g>
<!-- ReturnX2&#45;&gt;End -->
<g id="edge13" class="edge">
<title>ReturnX2-&gt;End</title>
<path fill="none" stroke="#000000" d="M155.5741,-72.9551C145.199,-63.8299 132.4494,-52.6165 121.1787,-42.7036"/>
<polygon fill="#000000" stroke="#000000" points="123.4799,-40.0665 113.6595,-36.0904 118.8569,-45.3228 123.4799,-40.0665"/>
</g>
<!-- IncrementK -->
<g id="node12" class="node">
<title>IncrementK</title>
<path fill="none" stroke="#000000" d="M420.2125,-36C420.2125,-36 349.9695,-36 349.9695,-36 343.9695,-36 337.9695,-30 337.9695,-24 337.9695,-24 337.9695,-12 337.9695,-12 337.9695,-6 343.9695,0 349.9695,0 349.9695,0 420.2125,0 420.2125,0 426.2125,0 432.2125,-6 432.2125,-12 432.2125,-12 432.2125,-24 432.2125,-24 432.2125,-30 426.2125,-36 420.2125,-36"/>
<text text-anchor="middle" x="385.091" y="-13.8" font-family="Times,serif" font-size="14.00" fill="#000000">Incrementar k</text>
</g>
<!-- UpdateX0X1&#45;&gt;IncrementK -->
<g id="edge14" class="edge">
<title>UpdateX0X1-&gt;IncrementK</title>
<path fill="none" stroke="#000000" d="M330.8888,-72.9551C339.7158,-64.0054 350.5241,-53.047 360.1603,-43.2769"/>
<polygon fill="#000000" stroke="#000000" points="362.7182,-45.6678 367.2485,-36.0904 357.7344,-40.7523 362.7182,-45.6678"/>
</g>
<!-- IncrementK&#45;&gt;StartSecanteLoop -->
<g id="edge15" class="edge">
<title>IncrementK-&gt;StartSecanteLoop</title>
<path fill="none" stroke="#000000" d="M394.5764,-36.0629C401.2848,-50.5175 409.091,-71.5222 409.091,-91 409.091,-252.8 409.091,-252.8 409.091,-252.8 409.091,-295.557 369.168,-322.6178 329.4581,-338.9587"/>
<polygon fill="#000000" stroke="#000000" points="327.9704,-335.7824 319.9325,-342.6847 330.5204,-342.3014 327.9704,-335.7824"/>
</g>
</g>
</svg>