<?xml version="1.0" encoding="UTF-8" standalone="no"?><!DOCTYPE svg PUBLIC "-//W3C//DTD SVG 1.1//EN" "http://www.w3.org/Graphics/SVG/1.1/DTD/svg11.dtd"><!-- Generated by graphviz version 2.40.1 (20161225.0304)
 --><!-- Title: G Pages: 1 --><svg xmlns="http://www.w3.org/2000/svg" xmlns:xlink="http://www.w3.org/1999/xlink" width="454pt" height="695pt" viewBox="0.00 0.00 454.31 694.60">
<g id="graph0" class="graph" transform="scale(1 1) rotate(0) translate(4 690.6)">
<title>G</title>
<polygon fill="#ffffff" stroke="transparent" points="-4,4 -4,-690.6 450.3072,-690.6 450.3072,4 -4,4"/>
<!-- Start -->
<g id="node1" class="node">
<title>Start</title>
<path fill="none" stroke="#000000" d="M332.3943,-686.6C332.3943,-686.6 302.2201,-686.6 302.2201,-686.6 296.2201,-686.6 290.2201,-680.6 290.2201,-674.6 290.2201,-674.6 290.2201,-662.6 290.2201,-662.6 290.2201,-656.6 296.2201,-650.6 302.2201,-650.6 302.2201,-650.6 332.3943,-650.6 332.3943,-650.6 338.3943,-650.6 344.3943,-656.6 344.3943,-662.6 344.3943,-662.6 344.3943,-674.6 344.3943,-674.6 344.3943,-680.6 338.3943,-686.6 332.3943,-686.6"/>
<text text-anchor="middle" x="317.3072" y="-664.4" font-family="Times,serif" font-size="14.00" fill="#000000">Início</text>
</g>
<!-- DefinePhi -->
<g id="node2" class="node">
<title>DefinePhi</title>
<path fill="none" stroke="#000000" d="M372.2259,-613.6C372.2259,-613.6 262.3885,-613.6 262.3885,-613.6 256.3885,-613.6 250.3885,-607.6 250.3885,-601.6 250.3885,-601.6 250.3885,-589.6 250.3885,-589.6 250.3885,-583.6 256.3885,-577.6 262.3885,-577.6 262.3885,-577.6 372.2259,-577.6 372.2259,-577.6 378.2259,-577.6 384.2259,-583.6 384.2259,-589.6 384.2259,-589.6 384.2259,-601.6 384.2259,-601.6 384.2259,-607.6 378.2259,-613.6 372.2259,-613.6"/>
<text text-anchor="middle" x="317.3072" y="-591.4" font-family="Times,serif" font-size="14.00" fill="#000000">Definir Função phi</text>
</g>
<!-- Start&#45;&gt;DefinePhi -->
<g id="edge1" class="edge">
<title>Start-&gt;DefinePhi</title>
<path fill="none" stroke="#000000" d="M317.3072,-650.5551C317.3072,-642.4828 317.3072,-632.7764 317.3072,-623.7817"/>
<polygon fill="#000000" stroke="#000000" points="320.8073,-623.6903 317.3072,-613.6904 313.8073,-623.6904 320.8073,-623.6903"/>
</g>
<!-- DefinePontoFixo -->
<g id="node3" class="node">
<title>DefinePontoFixo</title>
<path fill="none" stroke="#000000" d="M368.9883,-540.6C368.9883,-540.6 265.6261,-540.6 265.6261,-540.6 259.6261,-540.6 253.6261,-534.6 253.6261,-528.6 253.6261,-528.6 253.6261,-516.6 253.6261,-516.6 253.6261,-510.6 259.6261,-504.6 265.6261,-504.6 265.6261,-504.6 368.9883,-504.6 368.9883,-504.6 374.9883,-504.6 380.9883,-510.6 380.9883,-516.6 380.9883,-516.6 380.9883,-528.6 380.9883,-528.6 380.9883,-534.6 374.9883,-540.6 368.9883,-540.6"/>
<text text-anchor="middle" x="317.3072" y="-518.4" font-family="Times,serif" font-size="14.00" fill="#000000">Definir valor inicial</text>
</g>
<!-- DefinePhi&#45;&gt;DefinePontoFixo -->
<g id="edge2" class="edge">
<title>DefinePhi-&gt;DefinePontoFixo</title>
<path fill="none" stroke="#000000" d="M317.3072,-577.5551C317.3072,-569.4828 317.3072,-559.7764 317.3072,-550.7817"/>
<polygon fill="#000000" stroke="#000000" points="320.8073,-550.6903 317.3072,-540.6904 313.8073,-550.6904 320.8073,-550.6903"/>
</g>
<!-- CheckInitialErr -->
<g id="node4" class="node">
<title>CheckInitialErr</title>
<path fill="none" stroke="#000000" d="M379.9893,-467.6C379.9893,-467.6 254.6251,-467.6 254.6251,-467.6 248.6251,-467.6 242.6251,-461.6 242.6251,-455.6 242.6251,-455.6 242.6251,-443.6 242.6251,-443.6 242.6251,-437.6 248.6251,-431.6 254.6251,-431.6 254.6251,-431.6 379.9893,-431.6 379.9893,-431.6 385.9893,-431.6 391.9893,-437.6 391.9893,-443.6 391.9893,-443.6 391.9893,-455.6 391.9893,-455.6 391.9893,-461.6 385.9893,-467.6 379.9893,-467.6"/>
<text text-anchor="middle" x="317.3072" y="-445.4" font-family="Times,serif" font-size="14.00" fill="#000000">Verificar se |f(x0)| &lt; err</text>
</g>
<!-- DefinePontoFixo&#45;&gt;CheckInitialErr -->
<g id="edge3" class="edge">
<title>DefinePontoFixo-&gt;CheckInitialErr</title>
<path fill="none" stroke="#000000" d="M317.3072,-504.5551C317.3072,-496.4828 317.3072,-486.7764 317.3072,-477.7817"/>
<polygon fill="#000000" stroke="#000000" points="320.8073,-477.6903 317.3072,-467.6904 313.8073,-477.6904 320.8073,-477.6903"/>
</g>
<!-- InsertInitialData -->
<g id="node5" class="node">
<title>InsertInitialData</title>
<path fill="none" stroke="#000000" d="M431.7862,-324.8C431.7862,-324.8 372.8282,-324.8 372.8282,-324.8 366.8282,-324.8 360.8282,-318.8 360.8282,-312.8 360.8282,-312.8 360.8282,-300.8 360.8282,-300.8 360.8282,-294.8 366.8282,-288.8 372.8282,-288.8 372.8282,-288.8 431.7862,-288.8 431.7862,-288.8 437.7862,-288.8 443.7862,-294.8 443.7862,-300.8 443.7862,-300.8 443.7862,-312.8 443.7862,-312.8 443.7862,-318.8 437.7862,-324.8 431.7862,-324.8"/>
<text text-anchor="middle" x="402.3072" y="-302.6" font-family="Times,serif" font-size="14.00" fill="#000000">Retornar x0</text>
</g>
<!-- CheckInitialErr&#45;&gt;InsertInitialData -->
<g id="edge4" class="edge">
<title>CheckInitialErr-&gt;InsertInitialData</title>
<path fill="none" stroke="#000000" d="M328.0725,-431.5143C342.7453,-406.864 369.1428,-362.5162 386.1836,-333.8877"/>
<polygon fill="#000000" stroke="#000000" points="389.2535,-335.5731 391.3608,-325.1899 383.2384,-331.9927 389.2535,-335.5731"/>
<text text-anchor="middle" x="358.5891" y="-401" font-family="Times,serif" font-size="14.00" fill="#000000">Sim</text>
</g>
<!-- StartLoop -->
<g id="node6" class="node">
<title>StartLoop</title>
<path fill="none" stroke="#000000" d="M232.9603,-378.8C232.9603,-378.8 143.6541,-378.8 143.6541,-378.8 137.6541,-378.8 131.6541,-372.8 131.6541,-366.8 131.6541,-366.8 131.6541,-354.8 131.6541,-354.8 131.6541,-348.8 137.6541,-342.8 143.6541,-342.8 143.6541,-342.8 232.9603,-342.8 232.9603,-342.8 238.9603,-342.8 244.9603,-348.8 244.9603,-354.8 244.9603,-354.8 244.9603,-366.8 244.9603,-366.8 244.9603,-372.8 238.9603,-378.8 232.9603,-378.8"/>
<text text-anchor="middle" x="188.3072" y="-356.6" font-family="Times,serif" font-size="14.00" fill="#000000">Iniciar Iterações</text>
</g>
<!-- CheckInitialErr&#45;&gt;StartLoop -->
<g id="edge5" class="edge">
<title>CheckInitialErr-&gt;StartLoop</title>
<path fill="none" stroke="#000000" d="M290.8908,-431.4157C271.3254,-417.9474 244.4761,-399.4651 223.1534,-384.7871"/>
<polygon fill="#000000" stroke="#000000" points="224.9099,-381.7472 214.6882,-378.96 220.9407,-387.5132 224.9099,-381.7472"/>
<text text-anchor="middle" x="279.6908" y="-401" font-family="Times,serif" font-size="14.00" fill="#000000">Não</text>
</g>
<!-- End -->
<g id="node14" class="node">
<title>End</title>
<path fill="none" stroke="#000000" d="M388.3072,-36C388.3072,-36 358.3072,-36 358.3072,-36 352.3072,-36 346.3072,-30 346.3072,-24 346.3072,-24 346.3072,-12 346.3072,-12 346.3072,-6 352.3072,0 358.3072,0 358.3072,0 388.3072,0 388.3072,0 394.3072,0 400.3072,-6 400.3072,-12 400.3072,-12 400.3072,-24 400.3072,-24 400.3072,-30 394.3072,-36 388.3072,-36"/>
<text text-anchor="middle" x="373.3072" y="-13.8" font-family="Times,serif" font-size="14.00" fill="#000000">Fim</text>
</g>
<!-- InsertInitialData&#45;&gt;End -->
<g id="edge6" class="edge">
<title>InsertInitialData-&gt;End</title>
<path fill="none" stroke="#000000" d="M417.2036,-288.6366C429.9683,-271.1981 446.3072,-243.5538 446.3072,-216.3 446.3072,-216.3 446.3072,-216.3 446.3072,-91 446.3072,-67.7909 427.6292,-49.3834 409.169,-36.8584"/>
<polygon fill="#000000" stroke="#000000" points="410.8092,-33.7542 400.4897,-31.3545 407.0604,-39.6657 410.8092,-33.7542"/>
</g>
<!-- CalculateX2 -->
<g id="node7" class="node">
<title>CalculateX2</title>
<path fill="none" stroke="#000000" d="M272.4216,-270.8C272.4216,-270.8 104.1928,-270.8 104.1928,-270.8 98.1928,-270.8 92.1928,-264.8 92.1928,-258.8 92.1928,-258.8 92.1928,-246.8 92.1928,-246.8 92.1928,-240.8 98.1928,-234.8 104.1928,-234.8 104.1928,-234.8 272.4216,-234.8 272.4216,-234.8 278.4216,-234.8 284.4216,-240.8 284.4216,-246.8 284.4216,-246.8 284.4216,-258.8 284.4216,-258.8 284.4216,-264.8 278.4216,-270.8 272.4216,-270.8"/>
<text text-anchor="middle" x="188.3072" y="-248.6" font-family="Times,serif" font-size="14.00" fill="#000000">Calcular x2 com a função phi</text>
</g>
<!-- StartLoop&#45;&gt;CalculateX2 -->
<g id="edge7" class="edge">
<title>StartLoop-&gt;CalculateX2</title>
<path fill="none" stroke="#000000" d="M188.3072,-342.4793C188.3072,-325.621 188.3072,-300.3651 188.3072,-280.947"/>
<polygon fill="#000000" stroke="#000000" points="191.8073,-280.8501 188.3072,-270.8502 184.8073,-280.8502 191.8073,-280.8501"/>
</g>
<!-- CheckConvergence -->
<g id="node8" class="node">
<title>CheckConvergence</title>
<path fill="none" stroke="#000000" d="M299.1774,-197.8C299.1774,-197.8 77.437,-197.8 77.437,-197.8 71.437,-197.8 65.437,-191.8 65.437,-185.8 65.437,-185.8 65.437,-173.8 65.437,-173.8 65.437,-167.8 71.437,-161.8 77.437,-161.8 77.437,-161.8 299.1774,-161.8 299.1774,-161.8 305.1774,-161.8 311.1774,-167.8 311.1774,-173.8 311.1774,-173.8 311.1774,-185.8 311.1774,-185.8 311.1774,-191.8 305.1774,-197.8 299.1774,-197.8"/>
<text text-anchor="middle" x="188.3072" y="-175.6" font-family="Times,serif" font-size="14.00" fill="#000000">Verificar se |f(x2)| &lt; err ou |x2 - x1| &lt; err</text>
</g>
<!-- CalculateX2&#45;&gt;CheckConvergence -->
<g id="edge8" class="edge">
<title>CalculateX2-&gt;CheckConvergence</title>
<path fill="none" stroke="#000000" d="M188.3072,-234.7551C188.3072,-226.6828 188.3072,-216.9764 188.3072,-207.9817"/>
<polygon fill="#000000" stroke="#000000" points="191.8073,-207.8903 188.3072,-197.8904 184.8073,-207.8904 191.8073,-207.8903"/>
</g>
<!-- ReturnX2 -->
<g id="node9" class="node">
<title>ReturnX2</title>
<path fill="none" stroke="#000000" d="M295.7862,-109C295.7862,-109 236.8282,-109 236.8282,-109 230.8282,-109 224.8282,-103 224.8282,-97 224.8282,-97 224.8282,-85 224.8282,-85 224.8282,-79 230.8282,-73 236.8282,-73 236.8282,-73 295.7862,-73 295.7862,-73 301.7862,-73 307.7862,-79 307.7862,-85 307.7862,-85 307.7862,-97 307.7862,-97 307.7862,-103 301.7862,-109 295.7862,-109"/>
<text text-anchor="middle" x="266.3072" y="-86.8" font-family="Times,serif" font-size="14.00" fill="#000000">Retornar x2</text>
</g>
<!-- CheckConvergence&#45;&gt;ReturnX2 -->
<g id="edge9" class="edge">
<title>CheckConvergence-&gt;ReturnX2</title>
<path fill="none" stroke="#000000" d="M204.4689,-161.4006C215.8392,-148.4559 231.2084,-130.9586 243.78,-116.6464"/>
<polygon fill="#000000" stroke="#000000" points="246.4633,-118.895 250.4331,-109.072 241.2041,-114.2754 246.4633,-118.895"/>
<text text-anchor="middle" x="245.5891" y="-131.2" font-family="Times,serif" font-size="14.00" fill="#000000">Sim</text>
</g>
<!-- UpdateX1 -->
<g id="node10" class="node">
<title>UpdateX1</title>
<path fill="none" stroke="#000000" d="M187.4956,-109C187.4956,-109 81.1188,-109 81.1188,-109 75.1188,-109 69.1188,-103 69.1188,-97 69.1188,-97 69.1188,-85 69.1188,-85 69.1188,-79 75.1188,-73 81.1188,-73 81.1188,-73 187.4956,-73 187.4956,-73 193.4956,-73 199.4956,-79 199.4956,-85 199.4956,-85 199.4956,-97 199.4956,-97 199.4956,-103 193.4956,-109 187.4956,-109"/>
<text text-anchor="middle" x="134.3072" y="-86.8" font-family="Times,serif" font-size="14.00" fill="#000000">Atualizar x1 com x2</text>
</g>
<!-- CheckConvergence&#45;&gt;UpdateX1 -->
<g id="edge10" class="edge">
<title>CheckConvergence-&gt;UpdateX1</title>
<path fill="none" stroke="#000000" d="M157.2514,-161.4262C151.1547,-156.4463 145.4461,-150.5367 141.54,-143.8 137.2979,-136.4837 135.163,-127.6607 134.1714,-119.3396"/>
<polygon fill="#000000" stroke="#000000" points="137.6524,-118.9468 133.4542,-109.2192 130.6699,-119.4417 137.6524,-118.9468"/>
<text text-anchor="middle" x="156.6908" y="-131.2" font-family="Times,serif" font-size="14.00" fill="#000000">Não</text>
</g>
<!-- ReturnX2&#45;&gt;End -->
<g id="edge11" class="edge">
<title>ReturnX2-&gt;End</title>
<path fill="none" stroke="#000000" d="M292.7566,-72.9551C306.5176,-63.5667 323.5188,-51.9678 338.3503,-41.8491"/>
<polygon fill="#000000" stroke="#000000" points="340.5031,-44.6174 346.7912,-36.0904 336.558,-38.8349 340.5031,-44.6174"/>
</g>
<!-- ContinueLoop -->
<g id="node11" class="node">
<title>ContinueLoop</title>
<path fill="none" stroke="#000000" d="M120.4222,-36C120.4222,-36 12.1922,-36 12.1922,-36 6.1922,-36 .1922,-30 .1922,-24 .1922,-24 .1922,-12 .1922,-12 .1922,-6 6.1922,0 12.1922,0 12.1922,0 120.4222,0 120.4222,0 126.4222,0 132.4222,-6 132.4222,-12 132.4222,-12 132.4222,-24 132.4222,-24 132.4222,-30 126.4222,-36 120.4222,-36"/>
<text text-anchor="middle" x="66.3072" y="-13.8" font-family="Times,serif" font-size="14.00" fill="#000000">Continuar Iterações</text>
</g>
<!-- UpdateX1&#45;&gt;ContinueLoop -->
<g id="edge12" class="edge">
<title>UpdateX1-&gt;ContinueLoop</title>
<path fill="none" stroke="#000000" d="M117.4982,-72.9551C109.2433,-64.0932 99.1537,-53.2616 90.1208,-43.5646"/>
<polygon fill="#000000" stroke="#000000" points="92.5356,-41.022 83.1585,-36.0904 87.4135,-45.7932 92.5356,-41.022"/>
</g>
<!-- ContinueLoop&#45;&gt;StartLoop -->
<g id="edge13" class="edge">
<title>ContinueLoop-&gt;StartLoop</title>
<path fill="none" stroke="#000000" d="M54.6789,-36.1187C46.6109,-50.4329 37.3072,-71.2263 37.3072,-91 37.3072,-252.8 37.3072,-252.8 37.3072,-252.8 37.3072,-297.5025 81.63,-325.468 122.2489,-341.7106"/>
<polygon fill="#000000" stroke="#000000" points="121.06,-345.003 131.6508,-345.2953 123.5538,-338.4623 121.06,-345.003"/>
</g>
<!-- EndLoop -->
<g id="node12" class="node">
<title>EndLoop</title>
<path fill="none" stroke="#000000" d="M405.9237,-197.8C405.9237,-197.8 340.6907,-197.8 340.6907,-197.8 334.6907,-197.8 328.6907,-191.8 328.6907,-185.8 328.6907,-185.8 328.6907,-173.8 328.6907,-173.8 328.6907,-167.8 334.6907,-161.8 340.6907,-161.8 340.6907,-161.8 405.9237,-161.8 405.9237,-161.8 411.9237,-161.8 417.9237,-167.8 417.9237,-173.8 417.9237,-173.8 417.9237,-185.8 417.9237,-185.8 417.9237,-191.8 411.9237,-197.8 405.9237,-197.8"/>
<text text-anchor="middle" x="373.3072" y="-175.6" font-family="Times,serif" font-size="14.00" fill="#000000">Fim do Loop</text>
</g>
<!-- ReturnX1 -->
<g id="node13" class="node">
<title>ReturnX1</title>
<path fill="none" stroke="#000000" d="M402.7862,-109C402.7862,-109 343.8282,-109 343.8282,-109 337.8282,-109 331.8282,-103 331.8282,-97 331.8282,-97 331.8282,-85 331.8282,-85 331.8282,-79 337.8282,-73 343.8282,-73 343.8282,-73 402.7862,-73 402.7862,-73 408.7862,-73 414.7862,-79 414.7862,-85 414.7862,-85 414.7862,-97 414.7862,-97 414.7862,-103 408.7862,-109 402.7862,-109"/>
<text text-anchor="middle" x="373.3072" y="-86.8" font-family="Times,serif" font-size="14.00" fill="#000000">Retornar x1</text>
</g>
<!-- EndLoop&#45;&gt;ReturnX1 -->
<g id="edge14" class="edge">
<title>EndLoop-&gt;ReturnX1</title>
<path fill="none" stroke="#000000" d="M373.3072,-161.4006C373.3072,-149.2949 373.3072,-133.2076 373.3072,-119.4674"/>
<polygon fill="#000000" stroke="#000000" points="376.8073,-119.072 373.3072,-109.072 369.8073,-119.0721 376.8073,-119.072"/>
</g>
<!-- ReturnX1&#45;&gt;End -->
<g id="edge15" class="edge">
<title>ReturnX1-&gt;End</title>
<path fill="none" stroke="#000000" d="M373.3072,-72.9551C373.3072,-64.8828 373.3072,-55.1764 373.3072,-46.1817"/>
<polygon fill="#000000" stroke="#000000" points="376.8073,-46.0903 373.3072,-36.0904 369.8073,-46.0904 376.8073,-46.0903"/>
</g>
</g>
</svg>